<svg width="25" height="25" viewBox="0 0 25 25" fill="none" xmlns="http://www.w3.org/2000/svg">
<g id="ion:restaurant-sharp">
<path id="Vector" d="M16.3178 10.7755H17.0148C17.5076 10.7769 17.9958 10.6804 18.451 10.4918C18.9063 10.3032 19.3196 10.0262 19.667 9.67676L23.5037 5.80957L22.4622 4.75957L18.5444 8.67738L17.7301 7.86316L21.648 3.94488L20.5698 2.8991L16.6666 6.80191L15.8547 5.9877L19.7725 2.06941L18.7225 1.02832L14.8553 4.86504C14.5058 5.21256 14.2288 5.62595 14.0402 6.08129C13.8516 6.53662 13.7552 7.02485 13.7566 7.5177V8.21426L11.7348 10.236L2.50374 1.02832C0.428112 3.60035 1.65389 8.32723 3.99061 10.6644L7.99843 14.6722C9.24296 15.9168 9.48999 16.0279 10.9019 15.4597C11.2061 15.3374 11.3167 15.351 11.6003 15.6341L12.2097 16.2027C12.347 16.3433 12.3503 16.3846 12.3503 16.6536V16.9133C12.3503 17.9014 12.9822 18.4696 13.3984 18.8933L18.2537 23.5283L21.6287 20.1533L14.2961 12.7972L16.3178 10.7755Z" fill="black"/>
<path id="Vector_2" d="M10.9119 16.9001C9.51406 17.1865 8.65672 17.4504 7.0175 15.8112C6.99125 15.785 6.96406 15.7596 6.93781 15.7334L6.02375 14.8193L1.00391 19.7787L4.75391 23.5287L11.5039 16.7787L10.9119 16.9001Z" fill="black"/>
</g>
</svg>
