<svg width="25" height="24" viewBox="0 0 25 24" fill="none" xmlns="http://www.w3.org/2000/svg">
<path d="M20.9482 4H4.94824C3.84824 4 2.95824 4.9 2.95824 6L2.94824 18C2.94824 19.1 3.84824 20 4.94824 20H20.9482C22.0482 20 22.9482 19.1 22.9482 18V6C22.9482 4.9 22.0482 4 20.9482 4ZM20.5482 8.25L13.4782 12.67C13.1582 12.87 12.7382 12.87 12.4182 12.67L5.34824 8.25C5.24797 8.19371 5.16016 8.11766 5.09013 8.02645C5.0201 7.93525 4.9693 7.83078 4.94082 7.71937C4.91233 7.60796 4.90674 7.49194 4.9244 7.37831C4.94205 7.26468 4.98258 7.15581 5.04352 7.0583C5.10447 6.96079 5.18457 6.87666 5.27897 6.811C5.37337 6.74533 5.48011 6.69951 5.59274 6.6763C5.70536 6.65309 5.82153 6.65297 5.9342 6.67595C6.04687 6.69893 6.15371 6.74453 6.24824 6.81L12.9482 11L19.6482 6.81C19.7428 6.74453 19.8496 6.69893 19.9623 6.67595C20.075 6.65297 20.1911 6.65309 20.3037 6.6763C20.4164 6.69951 20.5231 6.74533 20.6175 6.811C20.7119 6.87666 20.792 6.96079 20.853 7.0583C20.9139 7.15581 20.9544 7.26468 20.9721 7.37831C20.9897 7.49194 20.9842 7.60796 20.9557 7.71937C20.9272 7.83078 20.8764 7.93525 20.8064 8.02645C20.7363 8.11766 20.6485 8.19371 20.5482 8.25Z" fill="#4E3B36"/>
</svg>
