<svg width="24" height="25" viewBox="0 0 24 25" fill="none" xmlns="http://www.w3.org/2000/svg">
<g id="instagram (3)" clip-path="url(#clip0_118_180)">
<path id="Vector" d="M12 14.9609C13.3591 14.9609 14.4609 13.8591 14.4609 12.5C14.4609 11.1409 13.3591 10.0391 12 10.0391C10.6409 10.0391 9.53906 11.1409 9.53906 12.5C9.53906 13.8591 10.6409 14.9609 12 14.9609Z" fill="#4E3B36"/>
<path id="Vector_2" d="M12 0.78125C5.52792 0.78125 0.28125 6.02792 0.28125 12.5C0.28125 18.9721 5.52792 24.2188 12 24.2188C18.4721 24.2188 23.7188 18.9721 23.7188 12.5C23.7188 6.02792 18.4721 0.78125 12 0.78125ZM19.2402 15.4784C19.184 16.5926 18.8709 17.6912 18.059 18.4945C17.2392 19.3055 16.1353 19.6076 15.0105 19.6633H8.98959C7.86459 19.6076 6.76087 19.3056 5.94108 18.4945C5.12911 17.6912 4.81608 16.5926 4.75983 15.4784V9.52156C4.81608 8.40744 5.12916 7.30878 5.94108 6.50544C6.76087 5.6945 7.86473 5.39234 8.98959 5.3367H15.0104C16.1354 5.39234 17.2391 5.69436 18.0589 6.50544C18.8709 7.30878 19.1839 8.40744 19.2402 9.52156L19.2402 15.4784Z" fill="#4E3B36"/>
<path id="Vector_3" d="M14.9338 6.69423C13.4672 6.65401 10.5319 6.65401 9.06539 6.69423C8.30221 6.71518 7.43704 6.90516 6.89329 7.48595C6.32826 8.08965 6.11474 8.81902 6.09309 9.63498C6.05503 11.0671 6.09309 15.3655 6.09309 15.3655C6.11789 16.1814 6.32826 16.9109 6.89329 17.5146C7.43704 18.0955 8.30221 18.2853 9.06539 18.3063C10.5319 18.3465 13.4672 18.3465 14.9338 18.3063C15.6969 18.2853 16.5621 18.0954 17.1059 17.5146C17.6709 16.9109 17.8844 16.1815 17.9061 15.3655V9.63498C17.8844 8.81902 17.6709 8.08965 17.1059 7.48595C16.5619 6.90498 15.6967 6.71518 14.9338 6.69423ZM11.9994 16.3147C11.245 16.3147 10.5075 16.091 9.88019 15.6719C9.25291 15.2527 8.764 14.657 8.47529 13.96C8.18658 13.263 8.11105 12.496 8.25823 11.7561C8.40541 11.0162 8.7687 10.3365 9.30216 9.80303C9.83562 9.26957 10.5153 8.90628 11.2552 8.7591C11.9952 8.61192 12.7621 8.68746 13.4591 8.97616C14.1561 9.26487 14.7519 9.75378 15.171 10.3811C15.5901 11.0083 15.8138 11.7458 15.8138 12.5003C15.8138 13.5119 15.412 14.4821 14.6966 15.1975C13.9813 15.9128 13.011 16.3147 11.9994 16.3147ZM15.8301 9.47316C15.6792 9.47313 15.5317 9.42835 15.4063 9.3445C15.2808 9.26065 15.1831 9.14149 15.1254 9.00209C15.0677 8.86269 15.0526 8.7093 15.082 8.56133C15.1115 8.41335 15.1842 8.27744 15.2909 8.17076C15.3976 8.06409 15.5335 7.99145 15.6815 7.96203C15.8295 7.93261 15.9828 7.94773 16.1222 8.00547C16.2616 8.06322 16.3808 8.161 16.4646 8.28645C16.5484 8.41191 16.5931 8.5594 16.5931 8.71027C16.5931 8.81047 16.5734 8.90969 16.535 9.00226C16.4967 9.09483 16.4405 9.17894 16.3696 9.24978C16.2988 9.32063 16.2146 9.37682 16.1221 9.41515C16.0295 9.45347 15.9303 9.47319 15.8301 9.47316Z" fill="#4E3B36"/>
</g>
<defs>
<clipPath id="clip0_118_180">
<rect width="24" height="24" fill="white" transform="translate(0 0.5)"/>
</clipPath>
</defs>
</svg>
