<svg width="24" height="25" viewBox="0 0 24 25" fill="none" xmlns="http://www.w3.org/2000/svg">
<g id="linkedin (3)" clip-path="url(#clip0_118_203)">
<g id="Layer_x0020_1">
<path id="Vector" fill-rule="evenodd" clip-rule="evenodd" d="M12 0.5C18.6277 0.5 24 5.87234 24 12.5C24 19.1277 18.6277 24.5 12 24.5C5.37234 24.5 0 19.1277 0 12.5C0 5.87234 5.37234 0.5 12 0.5ZM6.65438 18.0692H8.95266V10.6437H6.65438V18.0692ZM7.7925 9.67156C8.54344 9.67156 9.15188 9.0575 9.15188 8.30094C9.15188 7.54437 8.54344 6.93078 7.7925 6.93078C7.04156 6.93078 6.43359 7.54437 6.43359 8.30094C6.43359 9.0575 7.04156 9.67156 7.7925 9.67156ZM12.6267 14.1716C12.6267 13.1277 13.1077 12.5052 14.0278 12.5052C14.8725 12.5052 15.2789 13.1023 15.2789 14.1716V18.0692H17.5664C17.5664 18.0692 17.5664 15.3566 17.5664 13.3677C17.5664 11.3788 16.4391 10.4169 14.8645 10.4169C13.2895 10.4169 12.6267 11.6441 12.6267 11.6441V10.6437H10.4222V18.0692H12.6267C12.6267 18.0692 12.6267 15.3153 12.6267 14.1716Z" fill="#4E3B36"/>
</g>
</g>
<defs>
<clipPath id="clip0_118_203">
<rect width="24" height="24" fill="white" transform="translate(0 0.5)"/>
</clipPath>
</defs>
</svg>
