<svg width="24" height="24" viewBox="0 0 24 24" fill="none" xmlns="http://www.w3.org/2000/svg">
<path d="M1.78873 10.3629C1.40712 9.33217 1.13078 8.27949 1.21412 7.16101C1.26676 6.47238 1.52555 5.88464 2.02998 5.40216C2.57827 4.88459 3.09586 4.3407 3.63537 3.81436C4.33719 3.12134 5.21884 3.12573 5.92065 3.81436C6.35489 4.23982 6.78475 4.67405 7.21461 5.10828C7.63131 5.52497 8.0524 5.94166 8.4691 6.36273C9.20162 7.10399 9.206 7.96807 8.47349 8.70495C7.94713 9.23129 7.42516 9.76202 6.89003 10.2796C6.74966 10.4156 6.7365 10.5296 6.81107 10.7007C7.16198 11.5428 7.67079 12.2928 8.24101 12.9946C9.39023 14.407 10.6886 15.6614 12.237 16.6308C12.5703 16.8369 12.9344 16.9904 13.2809 17.179C13.4607 17.2755 13.5792 17.2448 13.7239 17.0957C14.2459 16.5562 14.781 16.0255 15.3162 15.4948C16.018 14.8017 16.8952 14.7974 17.597 15.4948C18.4568 16.3457 19.3121 17.201 20.163 18.0607C20.878 18.78 20.8736 19.6616 20.1543 20.3853C19.6674 20.8766 19.1542 21.3415 18.698 21.8547C18.0313 22.6004 17.1891 22.846 16.2329 22.7934C14.838 22.7188 13.5528 22.2539 12.3115 21.653C9.55691 20.3152 7.20584 18.4598 5.23638 16.1176C3.78012 14.3807 2.57827 12.4946 1.78873 10.3629ZM22.7992 11.9332C22.7992 6.01622 17.983 1.2002 12.0659 1.2002V3.24416C16.8557 3.24416 20.7552 7.14347 20.7552 11.9332H22.7992ZM16.9215 11.9332H18.9656C18.9656 8.13036 15.8688 5.03372 12.0659 5.03372V7.07768C13.3642 7.07768 14.5836 7.58209 15.5004 8.4988C16.4171 9.41551 16.9215 10.6349 16.9215 11.9332Z" fill="#4E3B36"/>
</svg>
