<svg width="24" height="25" viewBox="0 0 24 25" fill="none" xmlns="http://www.w3.org/2000/svg">
<g id="twitter (5)" clip-path="url(#clip0_118_195)">
<g id="Layer 2">
<g id="Color">
<g id="04.Twitter">
<path id="Background" d="M12 24.5C18.6274 24.5 24 19.1274 24 12.5C24 5.87258 18.6274 0.5 12 0.5C5.37258 0.5 0 5.87258 0 12.5C0 19.1274 5.37258 24.5 12 24.5Z" fill="#4E3B36"/>
<path id="Icon" d="M19.774 7.68C19.1893 7.93536 18.5708 8.105 17.9377 8.18368C18.6051 7.78789 19.104 7.16087 19.3398 6.42158C18.7151 6.79237 18.0315 7.05351 17.3187 7.19368C16.8819 6.72655 16.3147 6.40167 15.6908 6.2613C15.0668 6.12092 14.4151 6.17155 13.8203 6.4066C13.2255 6.64165 12.7152 7.05023 12.3558 7.57922C11.9964 8.1082 11.8045 8.7331 11.8051 9.37263C11.8028 9.61674 11.8277 9.86034 11.8793 10.0989C10.6113 10.0367 9.37079 9.70761 8.23868 9.13326C7.10658 8.5589 6.10837 7.75218 5.30926 6.76579C4.89852 7.46749 4.77126 8.29956 4.95351 9.09195C5.13576 9.88434 5.61375 10.5772 6.28979 11.0289C5.7852 11.0153 5.29129 10.8805 4.84979 10.6358V10.6705C4.85121 11.406 5.1058 12.1186 5.57075 12.6886C6.03571 13.2585 6.68269 13.6509 7.40295 13.8C7.13038 13.8716 6.84949 13.9067 6.56769 13.9042C6.36477 13.908 6.16203 13.89 5.96295 13.8505C6.1693 14.4831 6.56656 15.0362 7.10011 15.4337C7.63366 15.8313 8.27727 16.0537 8.94242 16.0705C7.81525 16.9516 6.4257 17.4301 4.99505 17.43C4.74014 17.4322 4.48537 17.4174 4.23242 17.3858C5.69117 18.3263 7.39152 18.8232 9.12716 18.8163C14.9929 18.8163 18.1998 13.9579 18.1998 9.74684C18.1998 9.60632 18.1998 9.47053 18.1887 9.33474C18.8133 8.88401 19.3505 8.32328 19.774 7.68Z" fill="white"/>
</g>
</g>
</g>
</g>
<defs>
<clipPath id="clip0_118_195">
<rect width="24" height="24" fill="white" transform="translate(0 0.5)"/>
</clipPath>
</defs>
</svg>
