<svg width="24" height="25" viewBox="0 0 24 25" fill="none" xmlns="http://www.w3.org/2000/svg">
<g id="youtube (1)" clip-path="url(#clip0_118_186)">
<g id="Layer 2">
<g id="Color">
<g id="02.YouTube">
<path id="Background" d="M12 24.5C18.6274 24.5 24 19.1274 24 12.5C24 5.87258 18.6274 0.5 12 0.5C5.37258 0.5 0 5.87258 0 12.5C0 19.1274 5.37258 24.5 12 24.5Z" fill="#4E3B36"/>
<path id="Icon" d="M15.9262 7.98535H8.07254C7.75869 7.98535 7.44791 8.0472 7.15797 8.16735C6.86802 8.28751 6.6046 8.46361 6.38274 8.68562C6.16089 8.90762 5.98495 9.17116 5.86499 9.46118C5.74503 9.7512 5.68339 10.062 5.68359 10.3759V14.6232C5.68339 14.9371 5.74503 15.2479 5.86499 15.5379C5.98495 15.828 6.16089 16.0915 6.38274 16.3135C6.6046 16.5355 6.86802 16.7116 7.15797 16.8318C7.44791 16.9519 7.75869 17.0138 8.07254 17.0138H15.9262C16.2401 17.0138 16.5509 16.9519 16.8408 16.8318C17.1307 16.7116 17.3942 16.5355 17.616 16.3135C17.8379 16.0915 18.0138 15.828 18.1338 15.5379C18.2537 15.2479 18.3154 14.9371 18.3152 14.6232V10.3759C18.3154 10.062 18.2537 9.7512 18.1338 9.46118C18.0138 9.17116 17.8379 8.90762 17.616 8.68562C17.3942 8.46361 17.1307 8.28751 16.8408 8.16735C16.5509 8.0472 16.2401 7.98535 15.9262 7.98535ZM10.3352 14.4354V10.5638L13.6636 12.4996L10.3352 14.4354Z" fill="white"/>
</g>
</g>
</g>
</g>
<defs>
<clipPath id="clip0_118_186">
<rect width="24" height="24" fill="white" transform="translate(0 0.5)"/>
</clipPath>
</defs>
</svg>
